<?xml version="1.0" encoding="utf-8" standalone="no"?>
<!DOCTYPE svg PUBLIC "-//W3C//DTD SVG 1.1//EN"
  "http://www.w3.org/Graphics/SVG/1.1/DTD/svg11.dtd">
<svg xmlns:xlink="http://www.w3.org/1999/xlink" width="418.589152pt" height="285.557612pt" viewBox="0 0 418.589152 285.557612" xmlns="http://www.w3.org/2000/svg" version="1.1">
 <metadata>
  <rdf:RDF xmlns:dc="http://purl.org/dc/elements/1.1/" xmlns:cc="http://creativecommons.org/ns#" xmlns:rdf="http://www.w3.org/1999/02/22-rdf-syntax-ns#">
   <cc:Work>
    <dc:type rdf:resource="http://purl.org/dc/dcmitype/StillImage"/>
    <dc:date>2024-07-26T01:28:42.618732</dc:date>
    <dc:format>image/svg+xml</dc:format>
    <dc:creator>
     <cc:Agent>
      <dc:title>Matplotlib v3.6.3, https://matplotlib.org/</dc:title>
     </cc:Agent>
    </dc:creator>
   </cc:Work>
  </rdf:RDF>
 </metadata>
 <defs>
  <style type="text/css">*{stroke-linejoin: round; stroke-linecap: butt}</style>
 </defs>
 <g id="figure_1">
  <g id="patch_1">
   <path d="M 0 285.557612 
L 418.589152 285.557612 
L 418.589152 -0 
L 0 -0 
z
" style="fill: #ffffff"/>
  </g>
  <g id="axes_1">
   <g id="patch_2">
    <path d="M 52.757756 234.148862 
L 341.667836 234.148862 
L 341.667836 12.388862 
L 52.757756 12.388862 
z
" style="fill: #ffffff"/>
   </g>
   <g id="PathCollection_1">
    <path d="M 56.369132 234.148862 
L 59.980508 234.148862 
L 63.591884 234.148862 
L 67.20326 234.148862 
L 70.814636 234.148862 
L 74.426012 234.148862 
L 78.037388 234.148862 
L 81.648764 234.148862 
L 85.26014 234.148862 
L 88.871516 234.148862 
L 92.482892 234.148862 
L 96.094268 234.148862 
L 99.705644 234.148862 
L 103.31702 234.148862 
L 106.928396 234.148862 
L 110.539772 234.148862 
L 111.374161 234.148862 
L 110.656449 189.796862 
L 113.382187 145.444862 
L 110.539772 102.721461 
L 110.374788 101.092862 
L 110.539772 96.89511 
L 112.073256 56.740862 
L 111.311247 12.388862 
L 110.539772 12.388862 
L 106.928396 12.388862 
L 103.31702 12.388862 
L 99.705644 12.388862 
L 96.094268 12.388862 
L 92.482892 12.388862 
L 88.871516 12.388862 
L 85.26014 12.388862 
L 81.648764 12.388862 
L 78.037388 12.388862 
L 74.426012 12.388862 
L 70.814636 12.388862 
L 67.20326 12.388862 
L 63.591884 12.388862 
L 59.980508 12.388862 
L 56.369132 12.388862 
L 52.757756 12.388862 
L 52.757756 56.740862 
L 52.757756 101.092862 
L 52.757756 145.444862 
L 52.757756 189.796862 
L 52.757756 234.148862 
z
" clip-path="url(#p19977e2dc3)" style="fill: #350498"/>
    <path d="M 139.43078 234.148862 
L 143.042156 234.148862 
L 146.653532 234.148862 
L 150.264908 234.148862 
L 153.876284 234.148862 
L 157.48766 234.148862 
L 161.099036 234.148862 
L 164.710412 234.148862 
L 168.321788 234.148862 
L 171.933164 234.148862 
L 175.54454 234.148862 
L 179.155916 234.148862 
L 182.767292 234.148862 
L 186.378668 234.148862 
L 189.990044 234.148862 
L 193.60142 234.148862 
L 197.212796 234.148862 
L 200.824172 234.148862 
L 204.435548 234.148862 
L 208.046924 234.148862 
L 211.6583 234.148862 
L 215.269676 234.148862 
L 218.881052 234.148862 
L 222.492428 234.148862 
L 226.103804 234.148862 
L 229.71518 234.148862 
L 233.326556 234.148862 
L 236.937932 234.148862 
L 240.549308 234.148862 
L 244.160684 234.148862 
L 247.77206 234.148862 
L 251.383436 234.148862 
L 254.994812 234.148862 
L 258.606188 234.148862 
L 262.217564 234.148862 
L 265.82894 234.148862 
L 269.440316 234.148862 
L 273.051692 234.148862 
L 276.663068 234.148862 
L 280.274444 234.148862 
L 283.88582 234.148862 
L 287.497196 234.148862 
L 291.108572 234.148862 
L 294.719948 234.148862 
L 298.331324 234.148862 
L 301.9427 234.148862 
L 305.554076 234.148862 
L 309.165452 234.148862 
L 312.776828 234.148862 
L 316.388204 234.148862 
L 319.99958 234.148862 
L 323.610956 234.148862 
L 327.222332 234.148862 
L 330.833708 234.148862 
L 334.445084 234.148862 
L 338.05646 234.148862 
L 341.667836 234.148862 
L 341.667836 189.796862 
L 341.667836 145.444862 
L 341.667836 101.092862 
L 341.667836 56.740862 
L 341.667836 12.388862 
L 338.05646 12.388862 
L 334.445084 12.388862 
L 330.833708 12.388862 
L 327.222332 12.388862 
L 323.610956 12.388862 
L 319.99958 12.388862 
L 316.388204 12.388862 
L 312.776828 12.388862 
L 309.165452 12.388862 
L 305.554076 12.388862 
L 301.9427 12.388862 
L 298.331324 12.388862 
L 294.719948 12.388862 
L 291.108572 12.388862 
L 287.497196 12.388862 
L 283.88582 12.388862 
L 280.274444 12.388862 
L 276.663068 12.388862 
L 273.051692 12.388862 
L 269.440316 12.388862 
L 265.82894 12.388862 
L 262.217564 12.388862 
L 259.005758 12.388862 
L 258.606188 15.830916 
L 254.994812 49.163887 
L 253.970675 56.740862 
L 251.383436 76.627637 
L 247.77206 93.303716 
L 245.247622 101.092862 
L 244.160684 111.594998 
L 240.549308 131.278867 
L 236.937932 138.738654 
L 233.326556 141.89144 
L 229.71518 142.671221 
L 226.103804 139.826796 
L 222.492428 129.846889 
L 218.881052 107.331609 
L 218.2223 101.092862 
L 215.269676 81.96977 
L 212.692432 56.740862 
L 211.6583 50.368895 
L 208.046924 22.538414 
L 206.664707 12.388862 
L 204.435548 12.388862 
L 200.824172 12.388862 
L 197.212796 12.388862 
L 193.60142 12.388862 
L 189.990044 12.388862 
L 186.378668 12.388862 
L 182.767292 12.388862 
L 179.155916 12.388862 
L 175.54454 12.388862 
L 171.933164 12.388862 
L 168.321788 12.388862 
L 164.710412 12.388862 
L 161.099036 12.388862 
L 157.48766 12.388862 
L 153.876284 12.388862 
L 150.264908 12.388862 
L 146.653532 12.388862 
L 143.042156 12.388862 
L 139.43078 12.388862 
L 138.312487 12.388862 
L 139.35499 56.740862 
L 139.128822 101.092862 
L 135.819404 142.02725 
L 135.706172 145.444862 
L 135.819404 149.028906 
L 138.75718 189.796862 
L 139.145759 234.148862 
z
" clip-path="url(#p19977e2dc3)" style="fill: #350498"/>
   </g>
   <g id="PathCollection_2">
    <path d="M 114.151148 234.148862 
L 117.762524 234.148862 
L 121.3739 234.148862 
L 124.985276 234.148862 
L 128.596652 234.148862 
L 132.208028 234.148862 
L 135.819404 234.148862 
L 139.145759 234.148862 
L 138.75718 189.796862 
L 135.819404 149.028906 
L 135.706172 145.444862 
L 135.819404 142.02725 
L 139.128822 101.092862 
L 139.35499 56.740862 
L 138.312487 12.388862 
L 135.819404 12.388862 
L 132.208028 12.388862 
L 128.596652 12.388862 
L 124.985276 12.388862 
L 121.3739 12.388862 
L 117.762524 12.388862 
L 114.151148 12.388862 
L 111.311247 12.388862 
L 112.073256 56.740862 
L 110.539772 96.89511 
L 110.374788 101.092862 
L 110.539772 102.721461 
L 113.382187 145.444862 
L 110.656449 189.796862 
L 111.374161 234.148862 
z
M 123.242508 145.444862 
L 124.985276 139.441473 
L 126.470784 145.444862 
L 124.985276 152.307527 
z
" clip-path="url(#p19977e2dc3)" style="fill: #6f00a8"/>
    <path d="M 218.881052 107.331609 
L 222.492428 129.846889 
L 226.103804 139.826796 
L 229.71518 142.671221 
L 233.326556 141.89144 
L 236.937932 138.738654 
L 240.549308 131.278867 
L 244.160684 111.594998 
L 245.247622 101.092862 
L 247.77206 93.303716 
L 251.383436 76.627637 
L 253.970675 56.740862 
L 254.994812 49.163887 
L 258.606188 15.830916 
L 259.005758 12.388862 
L 258.606188 12.388862 
L 254.994812 12.388862 
L 254.173138 12.388862 
L 251.383436 35.658203 
L 247.77206 55.306623 
L 247.432003 56.740862 
L 244.160684 72.674029 
L 240.549308 83.671328 
L 236.937932 90.283236 
L 233.326556 93.418381 
L 229.71518 92.861701 
L 226.103804 87.376062 
L 222.492428 74.405691 
L 219.803797 56.740862 
L 218.881052 53.474704 
L 215.269676 32.764588 
L 212.959313 12.388862 
L 211.6583 12.388862 
L 208.046924 12.388862 
L 206.664707 12.388862 
L 208.046924 22.538414 
L 211.6583 50.368895 
L 212.692432 56.740862 
L 215.269676 81.96977 
L 218.2223 101.092862 
z
" clip-path="url(#p19977e2dc3)" style="fill: #6f00a8"/>
   </g>
   <g id="PathCollection_3">
    <path d="M 124.985276 152.307527 
L 126.470784 145.444862 
L 124.985276 139.441473 
L 123.242508 145.444862 
z
" clip-path="url(#p19977e2dc3)" style="fill: #a31e9a"/>
    <path d="M 222.492428 74.405691 
L 226.103804 87.376062 
L 229.71518 92.861701 
L 233.326556 93.418381 
L 236.937932 90.283236 
L 240.549308 83.671328 
L 244.160684 72.674029 
L 247.432003 56.740862 
L 247.77206 55.306623 
L 251.383436 35.658203 
L 254.173138 12.388862 
L 251.383436 12.388862 
L 250.50727 12.388862 
L 247.77206 31.507587 
L 244.160684 47.797584 
L 240.561615 56.740862 
L 240.549308 56.78031 
L 236.937932 64.744691 
L 233.326556 67.278952 
L 229.71518 64.179001 
L 227.104885 56.740862 
L 226.103804 55.365254 
L 222.492428 45.746602 
L 218.881052 28.147199 
L 216.860413 12.388862 
L 215.269676 12.388862 
L 212.959313 12.388862 
L 215.269676 32.764588 
L 218.881052 53.474704 
L 219.803797 56.740862 
z
" clip-path="url(#p19977e2dc3)" style="fill: #a31e9a"/>
   </g>
   <g id="PathCollection_4">
    <path d="M 229.71518 64.179001 
L 233.326556 67.278952 
L 236.937932 64.744691 
L 240.549308 56.78031 
L 240.561615 56.740862 
L 244.160684 47.797584 
L 247.77206 31.507587 
L 250.50727 12.388862 
L 247.77206 12.388862 
L 247.188011 12.388862 
L 244.160684 29.257626 
L 240.549308 41.300319 
L 236.937932 47.245841 
L 233.326556 48.803659 
L 229.71518 46.516711 
L 226.103804 39.830711 
L 222.492428 26.723768 
L 220.181737 12.388862 
L 218.881052 12.388862 
L 216.860413 12.388862 
L 218.881052 28.147199 
L 222.492428 45.746602 
L 226.103804 55.365254 
L 227.104885 56.740862 
z
" clip-path="url(#p19977e2dc3)" style="fill: #cc4778"/>
   </g>
   <g id="PathCollection_5">
    <path d="M 222.492428 26.723768 
L 226.103804 39.830711 
L 229.71518 46.516711 
L 233.326556 48.803659 
L 236.937932 47.245841 
L 240.549308 41.300319 
L 244.160684 29.257626 
L 247.188011 12.388862 
L 244.160684 12.388862 
L 243.854781 12.388862 
L 240.549308 25.837092 
L 236.937932 33.41676 
L 233.326556 35.505188 
L 229.71518 32.712884 
L 226.103804 24.296168 
L 223.450548 12.388862 
L 222.492428 12.388862 
L 220.181737 12.388862 
z
" clip-path="url(#p19977e2dc3)" style="fill: #e97158"/>
   </g>
   <g id="PathCollection_6">
    <path d="M 226.103804 24.296168 
L 229.71518 32.712884 
L 233.326556 35.505188 
L 236.937932 33.41676 
L 240.549308 25.837092 
L 243.854781 12.388862 
L 240.549308 12.388862 
L 239.88981 12.388862 
L 236.937932 19.587679 
L 233.326556 22.206718 
L 229.71518 18.909056 
L 227.392748 12.388862 
L 226.103804 12.388862 
L 223.450548 12.388862 
z
" clip-path="url(#p19977e2dc3)" style="fill: #fba238"/>
   </g>
   <g id="PathCollection_7">
    <path d="M 229.71518 18.909056 
L 233.326556 22.206718 
L 236.937932 19.587679 
L 239.88981 12.388862 
L 236.937932 12.388862 
L 233.326556 12.388862 
L 229.71518 12.388862 
L 227.392748 12.388862 
z
" clip-path="url(#p19977e2dc3)" style="fill: #fada24"/>
   </g>
   <g id="matplotlib.axis_1">
    <g id="xtick_1">
     <g id="line2d_1">
      <defs>
       <path id="m6624a2a856" d="M 0 0 
L 0 3.5 
" style="stroke: #000000; stroke-width: 0.8"/>
      </defs>
      <g>
       <use xlink:href="#m6624a2a856" x="52.757756" y="234.148862" style="stroke: #000000; stroke-width: 0.8"/>
      </g>
     </g>
     <g id="text_1">
      <!-- $\mathdefault{10^{-6}}$ -->
      <g transform="translate(38.75826 251.526587) scale(0.15 -0.15)">
       <defs>
        <path id="CMR17-31" d="M 1702 4058 
C 1702 4192 1696 4192 1606 4192 
C 1357 3916 979 3827 621 3827 
C 602 3827 570 3827 563 3808 
C 557 3795 557 3782 557 3648 
C 755 3648 1088 3686 1344 3839 
L 1344 461 
C 1344 236 1331 160 781 160 
L 589 160 
L 589 0 
C 896 0 1216 0 1523 0 
C 1830 0 2150 0 2458 0 
L 2458 160 
L 2266 160 
C 1715 160 1702 230 1702 458 
L 1702 4058 
z
" transform="scale(0.015625)"/>
        <path id="CMR17-30" d="M 2688 2025 
C 2688 2416 2682 3080 2413 3591 
C 2176 4039 1798 4198 1466 4198 
C 1158 4198 768 4058 525 3597 
C 269 3118 243 2524 243 2025 
C 243 1661 250 1106 448 619 
C 723 -39 1216 -128 1466 -128 
C 1760 -128 2208 -7 2470 600 
C 2662 1042 2688 1559 2688 2025 
z
M 1466 -26 
C 1056 -26 813 325 723 812 
C 653 1188 653 1738 653 2096 
C 653 2588 653 2997 736 3387 
C 858 3929 1216 4096 1466 4096 
C 1728 4096 2067 3923 2189 3400 
C 2272 3036 2278 2607 2278 2096 
C 2278 1680 2278 1169 2202 792 
C 2067 95 1690 -26 1466 -26 
z
" transform="scale(0.015625)"/>
        <path id="CMSY10-0" d="M 4218 1472 
C 4326 1472 4442 1472 4442 1600 
C 4442 1728 4326 1728 4218 1728 
L 755 1728 
C 646 1728 531 1728 531 1600 
C 531 1472 646 1472 755 1472 
L 4218 1472 
z
" transform="scale(0.015625)"/>
        <path id="CMR17-36" d="M 678 2176 
C 678 3690 1395 4032 1811 4032 
C 1946 4032 2272 4009 2400 3776 
C 2298 3776 2106 3776 2106 3553 
C 2106 3381 2246 3323 2336 3323 
C 2394 3323 2566 3348 2566 3560 
C 2566 3954 2246 4179 1805 4179 
C 1043 4179 243 3390 243 1984 
C 243 253 966 -128 1478 -128 
C 2099 -128 2688 427 2688 1283 
C 2688 2081 2170 2662 1517 2662 
C 1126 2662 838 2407 678 1960 
L 678 2176 
z
M 1478 25 
C 691 25 691 1200 691 1436 
C 691 1896 909 2560 1504 2560 
C 1613 2560 1926 2560 2138 2120 
C 2253 1870 2253 1609 2253 1289 
C 2253 944 2253 690 2118 434 
C 1978 171 1773 25 1478 25 
z
" transform="scale(0.015625)"/>
       </defs>
       <use xlink:href="#CMR17-31" transform="scale(0.996264)"/>
       <use xlink:href="#CMR17-30" transform="translate(45.690477 0) scale(0.996264)"/>
       <use xlink:href="#CMSY10-0" transform="translate(91.380954 36.153639) scale(0.697382)"/>
       <use xlink:href="#CMR17-36" transform="translate(145.621947 36.153639) scale(0.697382)"/>
      </g>
     </g>
    </g>
    <g id="xtick_2">
     <g id="line2d_2">
      <g>
       <use xlink:href="#m6624a2a856" x="124.985276" y="234.148862" style="stroke: #000000; stroke-width: 0.8"/>
      </g>
     </g>
     <g id="text_2">
      <!-- $\mathdefault{10^{-4}}$ -->
      <g transform="translate(110.98578 251.526587) scale(0.15 -0.15)">
       <defs>
        <path id="CMR17-34" d="M 2150 4122 
C 2150 4256 2144 4256 2029 4256 
L 128 1254 
L 128 1088 
L 1779 1088 
L 1779 457 
C 1779 224 1766 160 1318 160 
L 1197 160 
L 1197 0 
C 1402 0 1747 0 1965 0 
C 2182 0 2528 0 2733 0 
L 2733 160 
L 2611 160 
C 2163 160 2150 224 2150 457 
L 2150 1088 
L 2803 1088 
L 2803 1254 
L 2150 1254 
L 2150 4122 
z
M 1798 3703 
L 1798 1254 
L 256 1254 
L 1798 3703 
z
" transform="scale(0.015625)"/>
       </defs>
       <use xlink:href="#CMR17-31" transform="scale(0.996264)"/>
       <use xlink:href="#CMR17-30" transform="translate(45.690477 0) scale(0.996264)"/>
       <use xlink:href="#CMSY10-0" transform="translate(91.380954 36.153639) scale(0.697382)"/>
       <use xlink:href="#CMR17-34" transform="translate(145.621947 36.153639) scale(0.697382)"/>
      </g>
     </g>
    </g>
    <g id="xtick_3">
     <g id="line2d_3">
      <g>
       <use xlink:href="#m6624a2a856" x="197.212796" y="234.148862" style="stroke: #000000; stroke-width: 0.8"/>
      </g>
     </g>
     <g id="text_3">
      <!-- $\mathdefault{10^{-2}}$ -->
      <g transform="translate(183.2133 251.526587) scale(0.15 -0.15)">
       <defs>
        <path id="CMR17-32" d="M 2669 989 
L 2554 989 
C 2490 536 2438 459 2413 420 
C 2381 369 1920 369 1830 369 
L 602 369 
C 832 619 1280 1072 1824 1597 
C 2214 1967 2669 2402 2669 3035 
C 2669 3790 2067 4224 1395 4224 
C 691 4224 262 3604 262 3030 
C 262 2780 448 2748 525 2748 
C 589 2748 781 2787 781 3010 
C 781 3207 614 3264 525 3264 
C 486 3264 448 3258 422 3245 
C 544 3790 915 4058 1306 4058 
C 1862 4058 2227 3617 2227 3035 
C 2227 2479 1901 2000 1536 1584 
L 262 146 
L 262 0 
L 2515 0 
L 2669 989 
z
" transform="scale(0.015625)"/>
       </defs>
       <use xlink:href="#CMR17-31" transform="scale(0.996264)"/>
       <use xlink:href="#CMR17-30" transform="translate(45.690477 0) scale(0.996264)"/>
       <use xlink:href="#CMSY10-0" transform="translate(91.380954 36.153639) scale(0.697382)"/>
       <use xlink:href="#CMR17-32" transform="translate(145.621947 36.153639) scale(0.697382)"/>
      </g>
     </g>
    </g>
    <g id="xtick_4">
     <g id="line2d_4">
      <g>
       <use xlink:href="#m6624a2a856" x="269.440316" y="234.148862" style="stroke: #000000; stroke-width: 0.8"/>
      </g>
     </g>
     <g id="text_4">
      <!-- $\mathdefault{10^{0}}$ -->
      <g transform="translate(259.508893 251.526587) scale(0.15 -0.15)">
       <use xlink:href="#CMR17-31" transform="scale(0.996264)"/>
       <use xlink:href="#CMR17-30" transform="translate(45.690477 0) scale(0.996264)"/>
       <use xlink:href="#CMR17-30" transform="translate(91.380954 36.153639) scale(0.697382)"/>
      </g>
     </g>
    </g>
    <g id="xtick_5">
     <g id="line2d_5">
      <g>
       <use xlink:href="#m6624a2a856" x="341.667836" y="234.148862" style="stroke: #000000; stroke-width: 0.8"/>
      </g>
     </g>
     <g id="text_5">
      <!-- $\mathdefault{10^{2}}$ -->
      <g transform="translate(331.736413 251.526587) scale(0.15 -0.15)">
       <use xlink:href="#CMR17-31" transform="scale(0.996264)"/>
       <use xlink:href="#CMR17-30" transform="translate(45.690477 0) scale(0.996264)"/>
       <use xlink:href="#CMR17-32" transform="translate(91.380954 36.153639) scale(0.697382)"/>
      </g>
     </g>
    </g>
    <g id="text_6">
     <!-- $\tau/s$ -->
     <g transform="translate(182.391187 273.376292) scale(0.2 -0.2)">
      <defs>
       <path id="CMMI12-1c" d="M 1837 2408 
L 2899 2408 
C 2982 2408 3194 2408 3194 2612 
C 3194 2752 3072 2752 2957 2752 
L 1197 2752 
C 1050 2752 832 2752 538 2440 
C 371 2255 166 1917 166 1879 
C 166 1841 198 1828 237 1828 
C 282 1828 288 1847 320 1885 
C 653 2408 986 2408 1146 2408 
L 1677 2408 
L 1011 223 
C 979 127 979 114 979 95 
C 979 25 1024 -64 1152 -64 
C 1350 -64 1382 108 1402 203 
L 1837 2408 
z
" transform="scale(0.015625)"/>
       <path id="CMMI12-3d" d="M 2746 4562 
C 2746 4569 2784 4666 2784 4678 
C 2784 4755 2720 4800 2669 4800 
C 2637 4800 2579 4800 2528 4659 
L 384 -1363 
C 384 -1370 346 -1465 346 -1478 
C 346 -1555 410 -1600 461 -1600 
C 499 -1600 557 -1593 602 -1459 
L 2746 4562 
z
" transform="scale(0.015625)"/>
       <path id="CMMI12-73" d="M 1459 1280 
C 1568 1261 1741 1223 1779 1216 
C 1862 1192 2150 1090 2150 783 
C 2150 586 1971 70 1229 70 
C 1094 70 614 70 486 436 
C 742 404 870 603 870 745 
C 870 880 781 950 653 950 
C 512 950 326 841 326 552 
C 326 173 710 -64 1222 -64 
C 2195 -64 2483 651 2483 984 
C 2483 1079 2483 1258 2278 1462 
C 2118 1616 1965 1648 1619 1718 
C 1446 1756 1171 1814 1171 2101 
C 1171 2229 1286 2689 1894 2689 
C 2163 2689 2426 2589 2490 2368 
C 2208 2368 2195 2125 2195 2119 
C 2195 1984 2317 1946 2374 1946 
C 2464 1946 2643 2015 2643 2281 
C 2643 2545 2400 2816 1901 2816 
C 1062 2816 838 2160 838 1899 
C 838 1414 1312 1312 1459 1280 
z
" transform="scale(0.015625)"/>
      </defs>
      <use xlink:href="#CMMI12-1c" transform="scale(0.996264)"/>
      <use xlink:href="#CMMI12-3d" transform="translate(53.491165 0) scale(0.996264)"/>
      <use xlink:href="#CMMI12-73" transform="translate(102.266084 0) scale(0.996264)"/>
     </g>
    </g>
   </g>
   <g id="matplotlib.axis_2">
    <g id="ytick_1">
     <g id="line2d_6">
      <defs>
       <path id="m7e24598310" d="M 0 0 
L -3.5 0 
" style="stroke: #000000; stroke-width: 0.8"/>
      </defs>
      <g>
       <use xlink:href="#m7e24598310" x="52.757756" y="234.148862" style="stroke: #000000; stroke-width: 0.8"/>
      </g>
     </g>
     <g id="text_7">
      <!-- $\mathdefault{5}$ -->
      <g transform="translate(38.441518 239.337725) scale(0.15 -0.15)">
       <defs>
        <path id="CMR17-35" d="M 730 3692 
C 794 3666 1056 3584 1325 3584 
C 1920 3584 2246 3911 2432 4100 
C 2432 4157 2432 4192 2394 4192 
C 2387 4192 2374 4192 2323 4163 
C 2099 4058 1837 3973 1517 3973 
C 1325 3973 1037 3999 723 4139 
C 653 4171 640 4171 634 4171 
C 602 4171 595 4164 595 4037 
L 595 2203 
C 595 2089 595 2057 659 2057 
C 691 2057 704 2070 736 2114 
C 941 2401 1222 2522 1542 2522 
C 1766 2522 2246 2382 2246 1289 
C 2246 1085 2246 715 2054 421 
C 1894 159 1645 25 1370 25 
C 947 25 518 320 403 814 
C 429 807 480 795 506 795 
C 589 795 749 840 749 1038 
C 749 1210 627 1280 506 1280 
C 358 1280 262 1190 262 1011 
C 262 454 704 -128 1382 -128 
C 2042 -128 2669 440 2669 1264 
C 2669 2030 2170 2624 1549 2624 
C 1222 2624 947 2503 730 2274 
L 730 3692 
z
" transform="scale(0.015625)"/>
       </defs>
       <use xlink:href="#CMR17-35" transform="scale(0.996264)"/>
      </g>
     </g>
    </g>
    <g id="ytick_2">
     <g id="line2d_7">
      <g>
       <use xlink:href="#m7e24598310" x="52.757756" y="189.796862" style="stroke: #000000; stroke-width: 0.8"/>
      </g>
     </g>
     <g id="text_8">
      <!-- $\mathdefault{15}$ -->
      <g transform="translate(31.12528 194.985725) scale(0.15 -0.15)">
       <use xlink:href="#CMR17-31" transform="scale(0.996264)"/>
       <use xlink:href="#CMR17-35" transform="translate(45.690477 0) scale(0.996264)"/>
      </g>
     </g>
    </g>
    <g id="ytick_3">
     <g id="line2d_8">
      <g>
       <use xlink:href="#m7e24598310" x="52.757756" y="145.444862" style="stroke: #000000; stroke-width: 0.8"/>
      </g>
     </g>
     <g id="text_9">
      <!-- $\mathdefault{25}$ -->
      <g transform="translate(31.12528 150.633725) scale(0.15 -0.15)">
       <use xlink:href="#CMR17-32" transform="scale(0.996264)"/>
       <use xlink:href="#CMR17-35" transform="translate(45.690477 0) scale(0.996264)"/>
      </g>
     </g>
    </g>
    <g id="ytick_4">
     <g id="line2d_9">
      <g>
       <use xlink:href="#m7e24598310" x="52.757756" y="101.092862" style="stroke: #000000; stroke-width: 0.8"/>
      </g>
     </g>
     <g id="text_10">
      <!-- $\mathdefault{35}$ -->
      <g transform="translate(31.12528 106.281725) scale(0.15 -0.15)">
       <defs>
        <path id="CMR17-33" d="M 1414 2157 
C 1984 2157 2234 1662 2234 1090 
C 2234 320 1824 25 1453 25 
C 1114 25 563 194 390 693 
C 422 680 454 680 486 680 
C 640 680 755 782 755 948 
C 755 1133 614 1216 486 1216 
C 378 1216 211 1165 211 926 
C 211 335 787 -128 1466 -128 
C 2176 -128 2720 430 2720 1085 
C 2720 1707 2208 2157 1600 2227 
C 2086 2328 2554 2756 2554 3329 
C 2554 3820 2048 4179 1472 4179 
C 890 4179 378 3829 378 3329 
C 378 3110 544 3072 627 3072 
C 762 3072 877 3155 877 3321 
C 877 3486 762 3569 627 3569 
C 602 3569 570 3569 544 3557 
C 730 3959 1235 4032 1459 4032 
C 1683 4032 2106 3925 2106 3320 
C 2106 3143 2080 2828 1862 2550 
C 1670 2304 1453 2304 1242 2284 
C 1210 2284 1062 2269 1037 2269 
C 992 2263 966 2257 966 2208 
C 966 2163 973 2157 1101 2157 
L 1414 2157 
z
" transform="scale(0.015625)"/>
       </defs>
       <use xlink:href="#CMR17-33" transform="scale(0.996264)"/>
       <use xlink:href="#CMR17-35" transform="translate(45.690477 0) scale(0.996264)"/>
      </g>
     </g>
    </g>
    <g id="ytick_5">
     <g id="line2d_10">
      <g>
       <use xlink:href="#m7e24598310" x="52.757756" y="56.740862" style="stroke: #000000; stroke-width: 0.8"/>
      </g>
     </g>
     <g id="text_11">
      <!-- $\mathdefault{45}$ -->
      <g transform="translate(31.12528 61.929725) scale(0.15 -0.15)">
       <use xlink:href="#CMR17-34" transform="scale(0.996264)"/>
       <use xlink:href="#CMR17-35" transform="translate(45.690477 0) scale(0.996264)"/>
      </g>
     </g>
    </g>
    <g id="ytick_6">
     <g id="line2d_11">
      <g>
       <use xlink:href="#m7e24598310" x="52.757756" y="12.388862" style="stroke: #000000; stroke-width: 0.8"/>
      </g>
     </g>
     <g id="text_12">
      <!-- $\mathdefault{55}$ -->
      <g transform="translate(31.12528 17.577725) scale(0.15 -0.15)">
       <use xlink:href="#CMR17-35" transform="scale(0.996264)"/>
       <use xlink:href="#CMR17-35" transform="translate(45.690477 0) scale(0.996264)"/>
      </g>
     </g>
    </g>
    <g id="text_13">
     <!-- $R_{\rm ct}/\Omega$ -->
     <g transform="translate(22.14396 148.161865) rotate(-90) scale(0.2 -0.2)">
      <defs>
       <path id="CMMI12-52" d="M 2355 3924 
C 2413 4160 2438 4160 2688 4160 
L 3149 4160 
C 3699 4160 4109 3995 4109 3499 
C 4109 3175 3942 2240 2656 2240 
L 1933 2240 
L 2355 3924 
z
M 3245 2169 
C 4038 2341 4659 2851 4659 3398 
C 4659 3894 4154 4352 3264 4352 
L 1530 4352 
C 1402 4352 1344 4352 1344 4226 
C 1344 4160 1389 4160 1510 4160 
C 1894 4160 1894 4112 1894 4045 
C 1894 4033 1894 3994 1869 3899 
L 1005 479 
C 947 256 934 192 493 192 
C 346 192 301 192 301 71 
C 301 7 371 7 390 7 
C 506 7 640 7 762 7 
L 1517 7 
C 1632 7 1766 7 1882 7 
C 1933 7 2003 7 2003 128 
C 2003 192 1946 192 1850 192 
C 1459 192 1459 243 1459 306 
C 1459 313 1459 357 1472 407 
L 1901 2112 
L 2669 2112 
C 3277 2112 3392 1731 3392 1522 
C 3392 1427 3328 1179 3283 1014 
C 3213 723 3194 652 3194 532 
C 3194 82 3565 -128 3994 -128 
C 4512 -128 4736 501 4736 591 
C 4736 635 4704 654 4666 654 
C 4614 654 4602 616 4589 565 
C 4435 114 4173 0 4013 0 
C 3853 0 3750 70 3750 356 
C 3750 509 3827 1088 3834 1120 
C 3866 1355 3866 1380 3866 1432 
C 3866 1896 3488 2093 3245 2169 
z
" transform="scale(0.015625)"/>
       <path id="CMR17-63" d="M 2234 2240 
C 2112 2240 1933 2240 1933 2017 
C 1933 1838 2080 1787 2163 1787 
C 2208 1787 2394 1807 2394 2024 
C 2394 2467 1958 2803 1466 2803 
C 787 2803 211 2178 211 1363 
C 211 516 813 -64 1466 -64 
C 2259 -64 2458 677 2458 748 
C 2458 774 2451 793 2406 793 
C 2362 793 2355 787 2330 703 
C 2163 180 1798 51 1523 51 
C 1114 51 621 427 621 1369 
C 621 2338 1094 2688 1472 2688 
C 1722 2688 2093 2573 2234 2240 
z
" transform="scale(0.015625)"/>
       <path id="CMR17-74" d="M 966 2560 
L 1862 2560 
L 1862 2725 
L 966 2725 
L 966 3904 
L 851 3904 
C 838 3245 614 2668 70 2668 
L 70 2560 
L 627 2560 
L 627 771 
C 627 650 627 -64 1370 -64 
C 1747 -64 1965 306 1965 777 
L 1965 1140 
L 1850 1140 
L 1850 783 
C 1850 344 1677 51 1408 51 
C 1222 51 966 178 966 758 
L 966 2560 
z
" transform="scale(0.015625)"/>
       <path id="CMR17-a" d="M 4038 935 
L 3923 935 
C 3866 641 3846 563 3814 461 
C 3782 365 3763 314 3392 314 
L 2874 314 
C 2944 686 3098 961 3366 1391 
C 3699 1935 3974 2377 3974 2910 
C 3974 3775 3155 4480 2138 4480 
C 1094 4480 294 3768 294 2910 
C 294 2377 576 1922 890 1416 
C 1171 961 1325 686 1395 314 
L 877 314 
C 512 314 493 365 461 454 
C 422 557 410 641 346 935 
L 230 935 
L 416 0 
L 1382 0 
C 1517 0 1523 6 1523 102 
C 1523 558 1286 1154 1178 1429 
C 973 1929 781 2416 781 2916 
C 781 3871 1466 4377 2131 4377 
C 2829 4377 3488 3851 3488 2916 
C 3488 2422 3315 1981 3078 1397 
C 2976 1135 2746 551 2746 102 
C 2746 0 2752 0 2886 0 
L 3853 0 
L 4038 935 
z
" transform="scale(0.015625)"/>
      </defs>
      <use xlink:href="#CMMI12-52" transform="scale(0.996264)"/>
      <use xlink:href="#CMR17-63" transform="translate(74.250826 -14.943915) scale(0.697382)"/>
      <use xlink:href="#CMR17-74" transform="translate(102.590657 -14.943915) scale(0.697382)"/>
      <use xlink:href="#CMMI12-3d" transform="translate(127.78521 0) scale(0.996264)"/>
      <use xlink:href="#CMR17-a" transform="translate(176.560129 0) scale(0.996264)"/>
     </g>
    </g>
   </g>
   <g id="patch_3">
    <path d="M 52.757756 234.148862 
L 52.757756 12.388862 
" style="fill: none; stroke: #000000; stroke-width: 0.8; stroke-linejoin: miter; stroke-linecap: square"/>
   </g>
   <g id="patch_4">
    <path d="M 341.667836 234.148862 
L 341.667836 12.388862 
" style="fill: none; stroke: #000000; stroke-width: 0.8; stroke-linejoin: miter; stroke-linecap: square"/>
   </g>
   <g id="patch_5">
    <path d="M 52.757756 234.148862 
L 341.667836 234.148862 
" style="fill: none; stroke: #000000; stroke-width: 0.8; stroke-linejoin: miter; stroke-linecap: square"/>
   </g>
   <g id="patch_6">
    <path d="M 52.757756 12.388862 
L 341.667836 12.388862 
" style="fill: none; stroke: #000000; stroke-width: 0.8; stroke-linejoin: miter; stroke-linecap: square"/>
   </g>
  </g>
  <g id="axes_2">
   <g id="patch_7">
    <path d="M 359.724716 234.148862 
L 370.812716 234.148862 
L 370.812716 12.388862 
L 359.724716 12.388862 
z
" style="fill: #ffffff"/>
   </g>
   <g id="patch_8">
    <path clip-path="url(#p6326f0a7a0)" style="fill: #ffffff; stroke: #ffffff; stroke-width: 0.01; stroke-linejoin: miter"/>
   </g>
   <g id="QuadMesh_1">
    <path d="M 359.724716 234.148862 
L 370.812716 234.148862 
L 370.812716 202.468862 
L 359.724716 202.468862 
L 359.724716 234.148862 
" clip-path="url(#p6326f0a7a0)" style="fill: #350498"/>
    <path d="M 359.724716 202.468862 
L 370.812716 202.468862 
L 370.812716 170.788862 
L 359.724716 170.788862 
L 359.724716 202.468862 
" clip-path="url(#p6326f0a7a0)" style="fill: #6f00a8"/>
    <path d="M 359.724716 170.788862 
L 370.812716 170.788862 
L 370.812716 139.108862 
L 359.724716 139.108862 
L 359.724716 170.788862 
" clip-path="url(#p6326f0a7a0)" style="fill: #a31e9a"/>
    <path d="M 359.724716 139.108862 
L 370.812716 139.108862 
L 370.812716 107.428862 
L 359.724716 107.428862 
L 359.724716 139.108862 
" clip-path="url(#p6326f0a7a0)" style="fill: #cc4778"/>
    <path d="M 359.724716 107.428862 
L 370.812716 107.428862 
L 370.812716 75.748862 
L 359.724716 75.748862 
L 359.724716 107.428862 
" clip-path="url(#p6326f0a7a0)" style="fill: #e97158"/>
    <path d="M 359.724716 75.748862 
L 370.812716 75.748862 
L 370.812716 44.068862 
L 359.724716 44.068862 
L 359.724716 75.748862 
" clip-path="url(#p6326f0a7a0)" style="fill: #fba238"/>
    <path d="M 359.724716 44.068862 
L 370.812716 44.068862 
L 370.812716 12.388862 
L 359.724716 12.388862 
L 359.724716 44.068862 
" clip-path="url(#p6326f0a7a0)" style="fill: #fada24"/>
   </g>
   <g id="matplotlib.axis_3"/>
   <g id="matplotlib.axis_4">
    <g id="ytick_7">
     <g id="line2d_12">
      <defs>
       <path id="mbaa7acbf79" d="M 0 0 
L 3.5 0 
" style="stroke: #000000; stroke-width: 0.8"/>
      </defs>
      <g>
       <use xlink:href="#mbaa7acbf79" x="370.812716" y="234.148862" style="stroke: #000000; stroke-width: 0.8"/>
      </g>
     </g>
     <g id="text_14">
      <!-- $\mathdefault{0}$ -->
      <g transform="translate(377.812716 239.337725) scale(0.15 -0.15)">
       <use xlink:href="#CMR17-30" transform="scale(0.996264)"/>
      </g>
     </g>
    </g>
    <g id="ytick_8">
     <g id="line2d_13">
      <g>
       <use xlink:href="#mbaa7acbf79" x="370.812716" y="202.468862" style="stroke: #000000; stroke-width: 0.8"/>
      </g>
     </g>
     <g id="text_15">
      <!-- $\mathdefault{6}$ -->
      <g transform="translate(377.812716 207.657725) scale(0.15 -0.15)">
       <use xlink:href="#CMR17-36" transform="scale(0.996264)"/>
      </g>
     </g>
    </g>
    <g id="ytick_9">
     <g id="line2d_14">
      <g>
       <use xlink:href="#mbaa7acbf79" x="370.812716" y="170.788862" style="stroke: #000000; stroke-width: 0.8"/>
      </g>
     </g>
     <g id="text_16">
      <!-- $\mathdefault{12}$ -->
      <g transform="translate(377.812716 175.977725) scale(0.15 -0.15)">
       <use xlink:href="#CMR17-31" transform="scale(0.996264)"/>
       <use xlink:href="#CMR17-32" transform="translate(45.690477 0) scale(0.996264)"/>
      </g>
     </g>
    </g>
    <g id="ytick_10">
     <g id="line2d_15">
      <g>
       <use xlink:href="#mbaa7acbf79" x="370.812716" y="139.108862" style="stroke: #000000; stroke-width: 0.8"/>
      </g>
     </g>
     <g id="text_17">
      <!-- $\mathdefault{18}$ -->
      <g transform="translate(377.812716 144.297725) scale(0.15 -0.15)">
       <defs>
        <path id="CMR17-38" d="M 1741 2264 
C 2144 2467 2554 2773 2554 3263 
C 2554 3841 1990 4179 1472 4179 
C 890 4179 378 3759 378 3180 
C 378 3021 416 2747 666 2505 
C 730 2442 998 2251 1171 2130 
C 883 1983 211 1634 211 934 
C 211 279 838 -128 1459 -128 
C 2144 -128 2720 362 2720 1010 
C 2720 1590 2330 1857 2074 2029 
L 1741 2264 
z
M 902 2822 
C 851 2854 595 3051 595 3351 
C 595 3739 998 4032 1459 4032 
C 1965 4032 2336 3676 2336 3262 
C 2336 2669 1670 2331 1638 2331 
C 1632 2331 1626 2331 1574 2370 
L 902 2822 
z
M 2080 1519 
C 2176 1449 2483 1240 2483 851 
C 2483 381 2010 25 1472 25 
C 890 25 448 438 448 940 
C 448 1443 838 1862 1280 2060 
L 2080 1519 
z
" transform="scale(0.015625)"/>
       </defs>
       <use xlink:href="#CMR17-31" transform="scale(0.996264)"/>
       <use xlink:href="#CMR17-38" transform="translate(45.690477 0) scale(0.996264)"/>
      </g>
     </g>
    </g>
    <g id="ytick_11">
     <g id="line2d_16">
      <g>
       <use xlink:href="#mbaa7acbf79" x="370.812716" y="107.428862" style="stroke: #000000; stroke-width: 0.8"/>
      </g>
     </g>
     <g id="text_18">
      <!-- $\mathdefault{24}$ -->
      <g transform="translate(377.812716 112.617725) scale(0.15 -0.15)">
       <use xlink:href="#CMR17-32" transform="scale(0.996264)"/>
       <use xlink:href="#CMR17-34" transform="translate(45.690477 0) scale(0.996264)"/>
      </g>
     </g>
    </g>
    <g id="ytick_12">
     <g id="line2d_17">
      <g>
       <use xlink:href="#mbaa7acbf79" x="370.812716" y="75.748862" style="stroke: #000000; stroke-width: 0.8"/>
      </g>
     </g>
     <g id="text_19">
      <!-- $\mathdefault{30}$ -->
      <g transform="translate(377.812716 80.937725) scale(0.15 -0.15)">
       <use xlink:href="#CMR17-33" transform="scale(0.996264)"/>
       <use xlink:href="#CMR17-30" transform="translate(45.690477 0) scale(0.996264)"/>
      </g>
     </g>
    </g>
    <g id="ytick_13">
     <g id="line2d_18">
      <g>
       <use xlink:href="#mbaa7acbf79" x="370.812716" y="44.068862" style="stroke: #000000; stroke-width: 0.8"/>
      </g>
     </g>
     <g id="text_20">
      <!-- $\mathdefault{36}$ -->
      <g transform="translate(377.812716 49.257725) scale(0.15 -0.15)">
       <use xlink:href="#CMR17-33" transform="scale(0.996264)"/>
       <use xlink:href="#CMR17-36" transform="translate(45.690477 0) scale(0.996264)"/>
      </g>
     </g>
    </g>
    <g id="ytick_14">
     <g id="line2d_19">
      <g>
       <use xlink:href="#mbaa7acbf79" x="370.812716" y="12.388862" style="stroke: #000000; stroke-width: 0.8"/>
      </g>
     </g>
     <g id="text_21">
      <!-- $\mathdefault{42}$ -->
      <g transform="translate(377.812716 17.577725) scale(0.15 -0.15)">
       <use xlink:href="#CMR17-34" transform="scale(0.996264)"/>
       <use xlink:href="#CMR17-32" transform="translate(45.690477 0) scale(0.996264)"/>
      </g>
     </g>
    </g>
    <g id="text_22">
     <!-- $\gamma/\Omega$ -->
     <g transform="translate(407.653162 136.412323) rotate(-90) scale(0.15 -0.15)">
      <defs>
       <path id="CMMI12-d" d="M 2419 760 
C 2406 1071 2394 1561 2150 2133 
C 2022 2452 1805 2788 1338 2788 
C 550 2788 122 1790 122 1625 
C 122 1567 166 1567 186 1567 
C 243 1567 243 1580 275 1663 
C 410 2057 819 2368 1261 2368 
C 2150 2368 2278 1383 2278 754 
C 2278 352 2234 220 2195 92 
C 2074 -302 1862 -1090 1862 -1268 
C 1862 -1319 1882 -1376 1933 -1376 
C 2029 -1376 2086 -1166 2157 -912 
C 2310 -353 2349 -73 2381 181 
C 2400 334 2765 1384 3270 2382 
C 3315 2483 3405 2655 3405 2674 
C 3405 2680 3398 2725 3341 2725 
C 3328 2725 3296 2725 3283 2699 
C 3270 2687 3046 2254 2854 1822 
C 2758 1606 2630 1320 2419 760 
z
" transform="scale(0.015625)"/>
      </defs>
      <use xlink:href="#CMMI12-d" transform="scale(0.996264)"/>
      <use xlink:href="#CMMI12-3d" transform="translate(56.018568 0) scale(0.996264)"/>
      <use xlink:href="#CMR17-a" transform="translate(104.793487 0) scale(0.996264)"/>
     </g>
    </g>
   </g>
   <g id="LineCollection_1"/>
   <g id="patch_9">
    <path d="M 359.724716 234.148862 
L 365.268716 234.148862 
L 370.812716 234.148862 
L 370.812716 12.388862 
L 365.268716 12.388862 
L 359.724716 12.388862 
L 359.724716 234.148862 
z
" style="fill: none; stroke: #000000; stroke-width: 0.8; stroke-linejoin: miter; stroke-linecap: square"/>
   </g>
  </g>
 </g>
 <defs>
  <clipPath id="p19977e2dc3">
   <rect x="52.757756" y="12.388862" width="288.91008" height="221.76"/>
  </clipPath>
  <clipPath id="p6326f0a7a0">
   <rect x="359.724716" y="12.388862" width="11.088" height="221.76"/>
  </clipPath>
 </defs>
</svg>
